<svg
  width="200"
  height="200"
  viewBox="0 0 100 100"
  xmlns="http://www.w3.org/2000/svg"
  shape-rendering="crispEdges"
>
  <polygon
    points="
      0 14.28, 14.28 14.28, 14.28 28.57, 28.57 28.57,
      28.57 42.85, 42.85 42.85, 42.85 57.13, 28.57 57.13,
      28.57 71.41, 14.28 71.41, 14.28 85.69, 0 85.69,
      0 99.97, 14.28 99.97, 14.28 85.69, 28.57 85.69,
      28.57 71.41, 42.85 71.41, 42.85 57.13, 57.13 57.13,
      57.13 71.41, 71.41 71.41, 71.41 85.69, 85.69 85.69,
      85.69 99.97, 99.97 99.97, 99.97 85.69, 85.69 85.69,
      85.69 71.41, 71.41 71.41, 71.41 57.13, 57.13 57.13,
      57.13 42.85, 71.41 42.85, 71.41 28.57, 85.69 28.57,
      85.69 14.28, 99.97 14.28, 99.97 0, 85.69 0,
      85.69 14.28, 71.41 14.28, 71.41 28.56, 57.13 28.56,
      57.13 42.85, 42.85 42.85, 42.85 28.57, 28.57 28.57,
      28.57 14.28, 14.28 14.28, 14.28 0, 0 0
    "
    fill="#BE123C"
    stroke="none"
  />
</svg>
